<?xml version="1.0" standalone="no"?>
<!DOCTYPE svg PUBLIC "-//W3C//DTD SVG 20010904//EN"
 "http://www.w3.org/TR/2001/REC-SVG-20010904/DTD/svg10.dtd">
<svg version="1.0" xmlns="http://www.w3.org/2000/svg"
 width="700.000000pt" height="700.000000pt" viewBox="0 0 700.000000 700.000000"
 preserveAspectRatio="xMidYMid meet">
<metadata>
Created using a simple solid fill representing Charles Barnes' brand
</metadata>
<g transform="translate(0.000000,700.000000) scale(0.100000,-0.100000)"
fill="#000000" stroke="none">
<path d="M3280 6994 c-19 -2 -84 -9 -145 -14 -694 -67 -1401 -361 -1940 -805
-161 -133 -295 -262 -435 -419 -698 -784 -1001 -1826 -829 -2856 40 -240 116
-496 210 -710 411 -939 1221 -1649 2214 -1938 256 -75 491 -115 779 -133 152
-10 458 -3 610 13 856 92 1645 487 2216 1108 110 120 294 358 379 490 216 336
379 726 463 1105 43 195 60 333 68 545 12 338 -25 644 -117 960 -156 535 -433
1001 -825 1386 -117 114 -157 150 -273 239 -496 382 -1081 623 -1705 701 -105
13 -590 28 -670 20z"/>
</g>
</svg>